<?xml version="1.0" encoding="utf-8"?>
<!-- Generator: Adobe Illustrator 18.1.1, SVG Export Plug-In . SVG Version: 6.00 Build 0)  -->
<!DOCTYPE svg PUBLIC "-//W3C//DTD SVG 1.1//EN" "http://www.w3.org/Graphics/SVG/1.1/DTD/svg11.dtd">
<svg version="1.1" id="Layer_1" xmlns="http://www.w3.org/2000/svg" xmlns:xlink="http://www.w3.org/1999/xlink" x="0px" y="0px"
	 viewBox="0 0 76 100" enable-background="new 0 0 76 100" xml:space="preserve">
<g>
	<path fill="#00B3C5" d="M12.6,10.6c0.9-1.3,3.9-3.1,8.9-4.1c9.7-1.9,26.2-2.5,44.1-2.4c32.1,0.1,68.8,0.5,86,4.1
		c2.2,0.5,6.1,2.1,8.7,4.4c2.6,2.3,3.8,5.4,4,8.8c0.5,12,0.9,32.9,1,56.5c0.1,14.1,0.2,29.2,0.1,44c0,21.1,0.3,40.6,0,56.3
		c-0.4,17.2-1.5,29.6-2.3,30.4c-1.7,1.7-5.2,3.7-12.5,5c-9.2,1.6-23.2,2.4-33.6,3.1c-5.8,0.4-18-1.4-32.3-1.8
		c-19.1-0.6-41.9-1.2-57.6-2.6c-10.3-0.9-17.6-2.2-19-4.1c-1.7-2.2-2.3-6.5-2.6-12.5c-0.6-12.4-1.6-31.3-1.3-53.9
		c0.4-33.6,1.3-56.2,3-77.5C8.6,50,6.8,33.8,8,22.6C8.6,17.1,10.5,13.7,12.6,10.6z"/>
	<path fill="#FFFFFF" d="M35.4,129.3c0,0-0.9-8.9-1.4-13.4c-0.2-2.2,0.3-9,0.1-15.7c-0.1-2.6-1.2-8.3-0.7-15.3
		c0.4-5.4,3.2-21.7,10-31.1C52,42.2,66.6,37.8,67.8,37.6c2.1-0.4,22.3-2.8,28.3-2.2c10.3,1.2,25.5,8.3,30.4,14.7
		c2.1,2.7,5,9.6,7.9,16.8c3.9,9.8,6,21.7,6.4,26.4c0.6,8.1-3,39.1-3,39.1s9.6,0.9,9.6,1.6s-4.7,21.9-4.7,21.9l-12.6,1.4
		c0,0-2.5,8.4-4.5,10.5c-2,2.1-30,17.7-36.8,17.7c-3,0-8.9,0-14.9-2.6c-4.2-1.9-25.4-13.3-27.3-16.1c-2.8-4.1-4.3-11.8-4.3-11.8
		l-11-3.2c0,0-0.4-0.9-0.6-3.5c-0.2-2.6-1.9-15.9-1.9-15.9l5.9-0.7L35.4,129.3z"/>
	<polygon fill="#FFFFFF" points="35.2,122.6 56.9,119.7 82.2,123.7 77.7,140.1 73.5,147.2 44.7,147.2 	"/>
	<polygon fill="#FFFFFF" points="92.5,123.1 98.8,145.5 110.9,149.8 131.3,147.2 139.9,124.6 113.8,121.7 	"/>
	<g>
		<circle fill="#868587" cx="59.6" cy="129.8" r="2.6"/>
		<circle fill="#868587" cx="115.2" cy="129.8" r="2.6"/>
		<path fill="#868587" d="M81.3,137c-0.2,0.6-2.8,20.7-2.8,20.7s6.4,4.4,7.2,4.2s8.5-3.4,8.5-3.4v-4.7l2.3,4.7l-10,7.4l-13.1-5.6
			l7.2-31.9L81.3,137z"/>
		<path fill="#868587" d="M78.9,173.7c0,0,3.9,1,6.8,1c2.9,0,6.9-0.5,6.8-0.2c-0.1,0.3-2.6,4.2-2.6,4.2s-3.3,1.7-4.3,1.7
			c-0.9,0-4.4-1.9-4.4-1.9L78.9,173.7z"/>
		<path fill="#868587" d="M116.7,119.5c-14.6-0.2-29,2-30.8,1.9c-3.5-0.1-17.4-4.2-31.7-3.9c-14.3,0.3-24.5,2.8-24.5,2.8l-0.2,11
			c0,0,2.5,0.6,2.9,2.1c0.4,1.5,4.8,13.9,9.2,16.2c4.4,2.2,12.7,2.6,20.2,2.1s15.3-3.5,16.6-4.8c1.3-1.3,3.5-6.9,3.8-9.7
			c0.4-3.4,2.8-6.9,5.2-6.5c2.4,0.4,4.2,1,4.7,4.8c0.5,4.7,1.8,8.3,3.5,10.7c1.7,2.4,4.6,4.8,15.2,5.9c10.3,1.1,18.3-0.4,22.5-3.8
			c4-3.3,6.7-14.8,6.7-14.8l2.1,0l0.2-10.9C142.3,122.6,132.1,119.7,116.7,119.5z M72.8,143.2c-3.3,2.3-24.4,3.5-28,0.3
			c-2.6-2.3-4.8-7.5-5.8-11.8c-0.9-3.6-0.9-6.7-0.9-6.7s9-2.8,18.1-2.5c6,0.2,12.7,1.2,17.3,2.4c2.4,0.7,4.1,2.1,4.1,2.1
			S76.1,140.8,72.8,143.2z M132.9,137.6c-1.3,3.1-3,6.1-4.9,7.5c-1.1,0.7-10.1,2.2-17.1,1.7c-5.3-0.4-8-1.9-8.9-2.5
			c-2.1-1.4-3.3-7.1-4-9.4c-0.7-2.3-1.1-6-1.1-7.9c0.6-0.5,4.2-1.6,8.2-2.1c4.1-0.5,8.6-0.6,10.9-0.5c4.1,0.2,16.1,1.7,18.6,3.2
			C134.4,130.1,134.2,134.4,132.9,137.6z"/>
	</g>
	<polygon fill="#FFFFFF" points="60.4,129.3 66.1,129.3 66.1,127.4 62.6,127.4 	"/>
	<polygon fill="#FFFFFF" points="115.7,129.3 121.4,129.3 121.4,127.4 117.9,127.4 	"/>
</g>
</svg>
